<?xml version="1.0" encoding="utf-8"?>
<!-- Generator: Adobe Illustrator 16.0.3, SVG Export Plug-In . SVG Version: 6.00 Build 0)  -->
<!DOCTYPE svg PUBLIC "-//W3C//DTD SVG 1.1//EN" "http://www.w3.org/Graphics/SVG/1.1/DTD/svg11.dtd">
<svg version="1.1" id="Capa_1" xmlns="http://www.w3.org/2000/svg" xmlns:xlink="http://www.w3.org/1999/xlink" x="0px" y="0px"
	 width="400px" height="200px" viewBox="0 0 400 200" enable-background="new 0 0 400 200" xml:space="preserve">
<g>
	<g>
		<g>
			<linearGradient id="SVGID_1_" gradientUnits="userSpaceOnUse" x1="20.6802" y1="25.0742" x2="410.3416" y2="25.0742">
				<stop  offset="0" style="stop-color:#6CDEB5"/>
				<stop  offset="0.1582" style="stop-color:#65D9B3"/>
				<stop  offset="0.3805" style="stop-color:#53CBAF"/>
				<stop  offset="0.6406" style="stop-color:#35B3A8"/>
				<stop  offset="0.9275" style="stop-color:#0C939E"/>
				<stop  offset="1" style="stop-color:#008A9B"/>
			</linearGradient>
			<path fill="url(#SVGID_1_)" d="M92.159,25.074c0,6.843-5.544,12.384-12.384,12.384S67.39,31.917,67.39,25.074
				c0-6.839,5.545-12.384,12.385-12.384S92.159,18.235,92.159,25.074z"/>
			<linearGradient id="SVGID_2_" gradientUnits="userSpaceOnUse" x1="15.0771" y1="73.9922" x2="404.7926" y2="73.9922">
				<stop  offset="0" style="stop-color:#6CDEB5"/>
				<stop  offset="0.1582" style="stop-color:#65D9B3"/>
				<stop  offset="0.3805" style="stop-color:#53CBAF"/>
				<stop  offset="0.6406" style="stop-color:#35B3A8"/>
				<stop  offset="0.9275" style="stop-color:#0C939E"/>
				<stop  offset="1" style="stop-color:#008A9B"/>
			</linearGradient>
			<path fill="url(#SVGID_2_)" d="M41.715,73.989c0,6.815-6.191,12.388-13.757,12.388H15.501c-7.565,0-13.758-5.573-13.758-12.388
				c0-6.811,6.193-12.381,13.758-12.381h12.456C35.523,61.608,41.715,67.178,41.715,73.989z"/>
			<linearGradient id="SVGID_3_" gradientUnits="userSpaceOnUse" x1="16.1982" y1="99.374" x2="394.235" y2="99.374">
				<stop  offset="0" style="stop-color:#6CDEB5"/>
				<stop  offset="0.1582" style="stop-color:#65D9B3"/>
				<stop  offset="0.3805" style="stop-color:#53CBAF"/>
				<stop  offset="0.6406" style="stop-color:#35B3A8"/>
				<stop  offset="0.9275" style="stop-color:#0C939E"/>
				<stop  offset="1" style="stop-color:#008A9B"/>
			</linearGradient>
			<path fill="url(#SVGID_3_)" d="M369.345,111.754h-27.008c-7.947,0-14.45-5.57-14.45-12.384c0-6.808,6.503-12.384,14.45-12.384
				h7.939c7.954,0,14.452-5.573,14.452-12.382c0-6.813-6.498-12.387-14.452-12.387H312.71c-7.95,0-14.448-5.573-14.448-12.384
				c0-6.742,6.369-12.263,14.209-12.375h13.628c7.949,0,14.452-5.573,14.452-12.384c0-6.813-6.503-12.384-14.452-12.384H222.817
				h-4.938H114.596c-7.954,0-14.457,5.573-14.457,12.384c0,6.811,6.503,12.384,14.457,12.384h8.032
				c7.876,0.075,14.292,5.615,14.292,12.379c0,6.808-6.498,12.384-14.452,12.384H66.904c-7.949,0-14.453,5.574-14.453,12.385
				c0,6.812,6.504,12.384,14.453,12.384h38.795c7.949,0,14.452,5.573,14.452,12.384c0,6.812-6.503,12.388-14.452,12.388h-9.503
				c-7.954,0-14.453,5.569-14.453,12.381c0,6.815,6.499,12.387,14.453,12.387h35.174c7.949,0,14.452,5.573,14.452,12.385
				c0,6.742-6.373,12.26-14.214,12.374h-11.234c-7.949,0-14.452,5.573-14.452,12.385s6.503,12.384,14.452,12.384h103.283h4.938
				h103.286c7.948,0,14.453-5.572,14.453-12.387c0-6.809-6.505-12.385-14.453-12.385h-7.046
				c-7.877-0.075-14.291-5.611-14.291-12.378c0-6.81,6.502-12.382,14.456-12.382h44.345c7.949,0,14.453-5.574,14.453-12.386
				C383.798,117.328,377.294,111.754,369.345,111.754z"/>
		</g>
		<g>
			<linearGradient id="SVGID_4_" gradientUnits="userSpaceOnUse" x1="12.4751" y1="74.6792" x2="402.2286" y2="74.6792">
				<stop  offset="0" style="stop-color:#6CDEB5"/>
				<stop  offset="0.1582" style="stop-color:#65D9B3"/>
				<stop  offset="0.3805" style="stop-color:#53CBAF"/>
				<stop  offset="0.6406" style="stop-color:#35B3A8"/>
				<stop  offset="0.9275" style="stop-color:#0C939E"/>
				<stop  offset="1" style="stop-color:#008A9B"/>
			</linearGradient>
			<circle fill="url(#SVGID_4_)" cx="386.163" cy="74.679" r="12.387"/>
			<linearGradient id="SVGID_5_" gradientUnits="userSpaceOnUse" x1="15.0771" y1="173.8262" x2="404.7974" y2="173.8262">
				<stop  offset="0" style="stop-color:#6CDEB5"/>
				<stop  offset="0.1582" style="stop-color:#65D9B3"/>
				<stop  offset="0.3805" style="stop-color:#53CBAF"/>
				<stop  offset="0.6406" style="stop-color:#35B3A8"/>
				<stop  offset="0.9275" style="stop-color:#0C939E"/>
				<stop  offset="1" style="stop-color:#008A9B"/>
			</linearGradient>
			<path fill="url(#SVGID_5_)" d="M98.02,173.826c0,6.814-6.192,12.384-13.757,12.384H71.805c-7.57,0-13.757-5.569-13.757-12.384
				c0-6.812,6.187-12.384,13.757-12.384h12.458C91.828,161.442,98.02,167.015,98.02,173.826z"/>
		</g>
	</g>
	<g>
		<path fill="#FFFFFF" d="M182.155,99.805c4.975,1.617,7.337,4.976,7.337,12.691v23.642c0,5.971,2.986,9.456,9.208,9.456h2.617
			v12.441h-6.222c-14.059,0-21.158-7.091-21.158-20.279v-25.633c0-4.106-2.109-5.973-5.596-5.973h-4.104V93.458h4.104
			c3.487,0,5.596-1.866,5.596-5.972V61.854c0-13.19,7.1-20.284,21.158-20.284h6.222v12.443h-2.617c-6.223,0-9.208,3.482-9.208,9.457
			v23.642C189.492,94.829,187.13,98.186,182.155,99.805z"/>
		<path fill="#FFFFFF" d="M277.095,93.458v12.692h-4.233c-3.357,0-5.472,1.866-5.472,5.973v25.633
			c0,13.188-7.218,20.279-21.276,20.279h-6.223v-12.441h2.61c6.349,0,9.334-3.485,9.334-9.456v-23.642
			c0-7.715,2.244-11.074,7.217-12.691c-4.973-1.619-7.217-4.977-7.217-12.693V63.471c0-5.974-2.985-9.457-9.334-9.457h-2.61V41.571
			h6.223c14.059,0,21.276,7.093,21.276,20.284v25.631c0,4.106,2.114,5.972,5.472,5.972H277.095z"/>
	</g>
</g>
</svg>
